<svg width="29" height="30" viewBox="0 0 29 30" fill="none" xmlns="http://www.w3.org/2000/svg">
<path fill-rule="evenodd" clip-rule="evenodd" d="M11.1627 13.793C11.2314 14.7702 9.82328 19.2897 9.29094 20.424C8.39799 22.3434 7.05857 23.3381 4.91206 20.8602C3.22919 18.9058 4.208 15.6951 6.64644 14.5957C7.64242 14.142 9.05053 13.8628 11.1627 13.793ZM7.14443 26.2347C2.88575 25.432 8.0889 29.5153 13.5153 27.369C19.4912 24.7864 19.9376 17.0387 20.8821 13.5662C21.1053 13.5662 25.5014 13.287 27.2014 13.1125C28.2833 13.0078 28.2489 12.0655 27.2014 11.9782C26.2913 11.8561 21.8094 11.9783 21.3114 11.7863C21.3458 10.5823 22.3074 6.97016 24.0933 7.12721C25.8277 7.2668 25.1408 8.71514 26.36 8.73259C27.2873 8.73259 26.9954 5.50438 23.8529 4.96343C17.7396 3.88154 18.1861 8.55809 17.1214 11.9433L15.5416 11.9782C15.9194 9.20373 16.2456 4.35269 19.8003 3.55C20.6417 3.35805 21.4488 3.3057 22.1013 3.4104C23.0458 3.56745 23.4579 3.55 23.5438 3.4453C24.0933 2.79966 20.3498 2.06677 19.7659 2.03187C16.2456 1.77012 14.3739 3.11375 12.9658 6.32452C12.5193 7.35405 11.9011 12.2051 11.5405 12.4145C9.61721 12.5541 7.71111 12.6937 5.85652 12.938C1.64936 13.4789 0.0351808 15.3112 0.00083657 17.3702C-0.0850239 21.5931 6.45755 26.7582 10.7334 23.53C13.2062 21.6629 14.2022 16.4803 15.0779 13.5313C15.181 13.5313 16.7436 13.3917 16.8295 13.5487C16.9154 14.2293 15.6618 19.534 14.1506 22.7622C12.4506 26.4616 8.91316 26.5663 7.14443 26.2347Z" fill="white"/>
<path fill-rule="evenodd" clip-rule="evenodd" d="M16.0478 29.0938C16.1724 28.2862 16.4215 28.5268 17.4356 28.3893C23.7159 27.4958 28.0037 21.2072 28.5908 17.6505C28.6975 17.032 29 16.7227 29 17.3241C29 18.1832 28.8755 19.2313 28.662 20.0045C27.4521 24.2313 22.862 28.8532 17.2221 29.8842C16.1724 30.0732 15.8699 30.1591 16.0478 29.0938Z" fill="white"/>
<path fill-rule="evenodd" clip-rule="evenodd" d="M13.9945 0.74358C13.9416 1.53467 13.7298 1.18121 12.406 1.36635C6.79296 2.12378 2.34492 6.68518 0.668082 10.4387C0.668082 10.4387 -0.285069 11.7347 0.0856009 10.3882C1.48003 5.33864 7.05773 0.373283 12.3707 0.0366482C13.7298 -0.0306787 14.0475 -0.0980059 13.9945 0.74358Z" fill="white"/>
</svg>
