<svg width="32" height="32" viewBox="0 0 32 32" fill="none" xmlns="http://www.w3.org/2000/svg">
<path fill-rule="evenodd" clip-rule="evenodd" d="M30.7821 9.87706C31.5861 11.8183 32 13.8988 32 16H31.9992C30.3955 8.85692 24.0148 3.52014 16.3877 3.52014C16.2581 3.52014 16.1288 3.52168 16 3.52474L16 0C18.1011 -9.18444e-08 20.1817 0.413852 22.1229 1.21793C24.0641 2.022 25.828 3.20055 27.3137 4.68629C28.7994 6.17202 29.978 7.93585 30.7821 9.87706Z" fill="#B3BCC5"/>
<path fill-rule="evenodd" clip-rule="evenodd" d="M1.21794 22.1229C0.413863 20.1817 1.10061e-05 18.1012 1.11898e-05 16L0.000986799 16C1.60469 23.1431 7.98536 28.4799 15.6125 28.4799C15.742 28.4799 15.8712 28.4783 16 28.4753L16 32C13.8989 32 11.8183 31.5861 9.87707 30.7821C7.93586 29.978 6.17203 28.7994 4.6863 27.3137C3.20056 25.828 2.02201 24.0641 1.21794 22.1229Z" fill="#B3BCC5"/>
<circle cx="16" cy="16.0001" r="10.56" fill="#B3BCC5"/>
</svg>
