<svg width="32" height="32" viewBox="0 0 32 32" fill="none" xmlns="http://www.w3.org/2000/svg">
<path fill-rule="evenodd" clip-rule="evenodd" d="M30.7821 9.87706C31.5861 11.8183 32 13.8988 32 16H31.9992C30.3955 8.85692 24.0148 3.52014 16.3877 3.52014C16.2581 3.52014 16.1288 3.52168 16 3.52474L16 0C18.1011 -9.18444e-08 20.1817 0.413852 22.1229 1.21793C24.0641 2.022 25.828 3.20055 27.3137 4.68629C28.7994 6.17202 29.978 7.93585 30.7821 9.87706Z" fill="#4095DE"/>
<path fill-rule="evenodd" clip-rule="evenodd" d="M1.21794 22.1229C0.413863 20.1817 1.07518e-05 18.1011 1.09355e-05 16L0.000986544 16C1.60469 23.1431 7.98536 28.4798 15.6125 28.4798C15.742 28.4798 15.8712 28.4783 16 28.4752L16 32C13.8989 32 11.8183 31.5861 9.87707 30.7821C7.93586 29.978 6.17204 28.7994 4.6863 27.3137C3.20056 25.828 2.02201 24.0641 1.21794 22.1229Z" fill="#4095DE"/>
<circle cx="16" cy="16" r="10.06" fill="url(#paint0_linear)" stroke="#4095DE"/>
<path fill-rule="evenodd" clip-rule="evenodd" d="M14.784 14.9894C14.8135 15.4028 14.21 17.3149 13.9818 17.7947C13.5991 18.6068 13.0251 19.0276 12.1052 17.9793C11.3839 17.1525 11.8034 15.7941 12.8485 15.329C13.2753 15.137 13.8788 15.0189 14.784 14.9894ZM13.0619 20.2532C11.2367 19.9136 13.4667 21.6411 15.7923 20.733C18.3534 19.6404 18.5447 16.3625 18.9495 14.8934C19.0451 14.8934 20.9292 14.7753 21.6578 14.7014C22.1214 14.6571 22.1067 14.2585 21.6578 14.2216C21.2677 14.1699 19.3469 14.2216 19.1335 14.1404C19.1482 13.631 19.5603 12.1028 20.3257 12.1692C21.069 12.2283 20.7746 12.841 21.2971 12.8484C21.6946 12.8484 21.5694 11.4826 20.2227 11.2538C17.6027 10.796 17.794 12.7746 17.3378 14.2068L16.6607 14.2216C16.8226 13.0477 16.9624 10.9954 18.4858 10.6558C18.8464 10.5746 19.1923 10.5524 19.472 10.5967C19.8768 10.6632 20.0534 10.6558 20.0902 10.6115C20.3257 10.3383 18.7213 10.0282 18.4711 10.0135C16.9624 9.90274 16.1602 10.4712 15.5568 11.8296C15.3654 12.2652 15.1005 14.3175 14.9459 14.4061C14.1217 14.4652 13.3048 14.5243 12.5099 14.6276C10.7069 14.8565 10.0151 15.6316 10.0004 16.5028C9.96356 18.2894 12.7675 20.4746 14.6 19.1089C15.6598 18.3189 16.0866 16.1263 16.462 14.8786C16.5061 14.8786 17.1758 14.8196 17.2126 14.886C17.2494 15.1739 16.7122 17.4182 16.0646 18.784C15.336 20.3491 13.8199 20.3934 13.0619 20.2532Z" fill="#4095DE"/>
<defs>
<linearGradient id="paint0_linear" x1="26.56" y1="5.44" x2="3.4757" y2="7.27834" gradientUnits="userSpaceOnUse">
<stop stop-color="#155AA7"/>
<stop offset="1" stop-color="#241C52"/>
</linearGradient>
</defs>
</svg>
