<?xml version="1.0" encoding="UTF-8"?>
<svg version="1.1" xmlns="http://www.w3.org/2000/svg" xmlns:xlink="http://www.w3.org/1999/xlink">
    <style>:root>svg{display:none}:root>svg:target{display:block}</style>

    <svg id="youtube" width="40" height="40" viewBox="0 0 40 40" fill="none" xmlns="http://www.w3.org/2000/svg">
        <path d="M20.0165 29.3336H19.9899C19.9073 29.3336 11.6434 29.3177 9.55849 28.7515C8.99515 28.5997 8.48155 28.3026 8.06911 27.8899C7.65668 27.4773 7.35989 26.9635 7.20844 26.4001C6.83353 24.285 6.65248 22.1401 6.66756 19.9921C6.65788 17.8405 6.84382 15.6926 7.2231 13.5747C7.37882 13.0103 7.67699 12.4955 8.08898 12.0795C8.50097 11.6635 9.01296 11.3605 9.57581 11.1993C11.6035 10.6664 19.6395 10.6664 19.9805 10.6664H20.0085C20.0924 10.6664 28.3776 10.6824 30.4412 11.2486C31.5856 11.559 32.4795 12.453 32.7886 13.5973C33.1749 15.7209 33.3574 17.8751 33.3308 20.0334C33.3401 22.1823 33.1537 24.3276 32.7739 26.4427C32.6205 27.0055 32.3225 27.5184 31.9096 27.9304C31.4966 28.3425 30.983 28.6393 30.4199 28.7914C28.3949 29.3283 20.3575 29.3336 20.0165 29.3336V29.3336ZM17.352 16.002L17.3454 23.9954L24.289 19.9987L17.352 16.002Z"
              fill="white"/>
    </svg>

    <svg id="youtube-light" width="40" height="40" viewBox="0 0 40 40" fill="none" xmlns="http://www.w3.org/2000/svg">
        <path d="M20.0165 29.3336H19.9899C19.9073 29.3336 11.6434 29.3176 9.55849 28.7514C8.99515 28.5996 8.48155 28.3026 8.06911 27.8899C7.65668 27.4772 7.35989 26.9635 7.20844 26.4C6.83353 24.2849 6.65248 22.14 6.66756 19.992C6.65788 17.8405 6.84382 15.6925 7.2231 13.5746C7.37882 13.0103 7.67699 12.4954 8.08898 12.0794C8.50097 11.6635 9.01296 11.3604 9.57581 11.1993C11.6035 10.6664 19.6395 10.6664 19.9805 10.6664H20.0085C20.0924 10.6664 28.3776 10.6824 30.4412 11.2486C31.5856 11.559 32.4795 12.4529 32.7886 13.5973C33.1749 15.7209 33.3574 17.8751 33.3308 20.0333C33.3401 22.1822 33.1537 24.3275 32.7739 26.4426C32.6205 27.0055 32.3225 27.5184 31.9096 27.9304C31.4966 28.3424 30.983 28.6392 30.4199 28.7914C28.3949 29.3283 20.3575 29.3336 20.0165 29.3336V29.3336ZM17.352 16.002L17.3454 23.9953L24.289 19.9987L17.352 16.002Z" fill="#4095DE"/>
    </svg>

    <svg id="instagram" width="40" height="40" viewBox="0 0 40 40" fill="none" xmlns="http://www.w3.org/2000/svg">
        <path d="M19.9964 15.5538C17.5482 15.5538 15.5502 17.5518 15.5502 20.0001C15.5502 22.4484 17.5482 24.4463 19.9964 24.4463C22.4447 24.4463 24.4427 22.4484 24.4427 20.0001C24.4427 17.5518 22.4447 15.5538 19.9964 15.5538ZM33.3319 20.0001C33.3319 18.1589 33.3485 16.3343 33.2451 14.4965C33.1417 12.3617 32.6548 10.4671 31.0937 8.90612C29.5294 7.34176 27.6381 6.85811 25.5034 6.75471C23.6622 6.65131 21.8376 6.66798 19.9998 6.66798C18.1586 6.66798 16.334 6.65131 14.4962 6.75471C12.3614 6.85811 10.4668 7.3451 8.90582 8.90612C7.34146 10.4705 6.8578 12.3617 6.7544 14.4965C6.651 16.3377 6.66768 18.1622 6.66768 20.0001C6.66768 21.838 6.651 23.6658 6.7544 25.5037C6.8578 27.6384 7.34479 29.533 8.90582 31.094C10.4702 32.6584 12.3614 33.1421 14.4962 33.2455C16.3374 33.3489 18.1619 33.3322 19.9998 33.3322C21.841 33.3322 23.6655 33.3489 25.5034 33.2455C27.6381 33.1421 29.5327 32.6551 31.0937 31.094C32.6581 29.5297 33.1417 27.6384 33.2451 25.5037C33.3519 23.6658 33.3319 21.8413 33.3319 20.0001V20.0001ZM19.9964 26.8412C16.2106 26.8412 13.1553 23.7859 13.1553 20.0001C13.1553 16.2143 16.2106 13.1589 19.9964 13.1589C23.7823 13.1589 26.8376 16.2143 26.8376 20.0001C26.8376 23.7859 23.7823 26.8412 19.9964 26.8412ZM27.1178 14.4764C26.2339 14.4764 25.5201 13.7626 25.5201 12.8787C25.5201 11.9948 26.2339 11.281 27.1178 11.281C28.0017 11.281 28.7155 11.9948 28.7155 12.8787C28.7158 13.0886 28.6746 13.2965 28.5944 13.4905C28.5142 13.6844 28.3965 13.8607 28.2481 14.0091C28.0997 14.1575 27.9235 14.2752 27.7295 14.3554C27.5356 14.4356 27.3277 14.4767 27.1178 14.4764V14.4764Z"
              fill="white"/>
    </svg>

    <svg id="instagram-light" width="40" height="40" viewBox="0 0 40 40" fill="none" xmlns="http://www.w3.org/2000/svg">
        <path d="M19.9964 15.5538C17.5482 15.5538 15.5502 17.5518 15.5502 20.0001C15.5502 22.4484 17.5482 24.4463 19.9964 24.4463C22.4447 24.4463 24.4427 22.4484 24.4427 20.0001C24.4427 17.5518 22.4447 15.5538 19.9964 15.5538ZM33.3319 20.0001C33.3319 18.1589 33.3485 16.3343 33.2451 14.4965C33.1417 12.3617 32.6548 10.4671 31.0937 8.90612C29.5294 7.34176 27.6381 6.85811 25.5034 6.75471C23.6622 6.65131 21.8376 6.66798 19.9998 6.66798C18.1586 6.66798 16.334 6.65131 14.4962 6.75471C12.3614 6.85811 10.4668 7.3451 8.90582 8.90612C7.34146 10.4705 6.8578 12.3617 6.7544 14.4965C6.651 16.3377 6.66768 18.1622 6.66768 20.0001C6.66768 21.838 6.651 23.6658 6.7544 25.5037C6.8578 27.6384 7.34479 29.533 8.90582 31.094C10.4702 32.6584 12.3614 33.1421 14.4962 33.2455C16.3374 33.3489 18.1619 33.3322 19.9998 33.3322C21.841 33.3322 23.6655 33.3489 25.5034 33.2455C27.6381 33.1421 29.5327 32.6551 31.0937 31.094C32.6581 29.5297 33.1417 27.6384 33.2451 25.5037C33.3519 23.6658 33.3319 21.8413 33.3319 20.0001V20.0001ZM19.9964 26.8412C16.2106 26.8412 13.1553 23.7859 13.1553 20.0001C13.1553 16.2143 16.2106 13.1589 19.9964 13.1589C23.7823 13.1589 26.8376 16.2143 26.8376 20.0001C26.8376 23.7859 23.7823 26.8412 19.9964 26.8412ZM27.1178 14.4764C26.2339 14.4764 25.5201 13.7626 25.5201 12.8787C25.5201 11.9948 26.2339 11.281 27.1178 11.281C28.0017 11.281 28.7155 11.9948 28.7155 12.8787C28.7158 13.0886 28.6746 13.2965 28.5944 13.4905C28.5142 13.6844 28.3965 13.8607 28.2481 14.0091C28.0997 14.1575 27.9235 14.2752 27.7295 14.3554C27.5356 14.4356 27.3277 14.4767 27.1178 14.4764V14.4764Z" fill="#4095DE"/>
    </svg>

    <svg id="facebook" width="40" height="40" viewBox="0 0 40 40" fill="none" xmlns="http://www.w3.org/2000/svg">
        <path d="M33.3333 20.0816C33.3333 12.6726 27.3641 6.66666 20.0017 6.66666C12.6359 6.66832 6.66669 12.6726 6.66669 20.0833C6.66669 26.7775 11.5427 32.3268 17.9153 33.3333V23.9595H14.5324V20.0833H17.9186V17.1253C17.9186 13.7641 19.91 11.9077 22.9546 11.9077C24.4145 11.9077 25.9393 12.1693 25.9393 12.1693V15.4689H24.2578C22.603 15.4689 22.0864 16.5038 22.0864 17.5653V20.0816H25.7826L25.1927 23.9578H22.0848V33.3317C28.4573 32.3251 33.3333 26.7758 33.3333 20.0816Z"
              fill="white"/>
    </svg>

    <svg id="facebook-light" width="40" height="40" viewBox="0 0 40 40" fill="none" xmlns="http://www.w3.org/2000/svg">
        <path d="M33.3333 20.0816C33.3333 12.6725 27.3641 6.66663 20.0017 6.66663C12.6359 6.66829 6.66669 12.6725 6.66669 20.0833C6.66669 26.7774 11.5427 32.3268 17.9153 33.3333V23.9595H14.5324V20.0833H17.9186V17.1253C17.9186 13.7641 19.91 11.9076 22.9546 11.9076C24.4145 11.9076 25.9393 12.1693 25.9393 12.1693V15.4689H24.2578C22.603 15.4689 22.0864 16.5037 22.0864 17.5653V20.0816H25.7826L25.1927 23.9578H22.0848V33.3316C28.4573 32.3251 33.3333 26.7758 33.3333 20.0816Z" fill="#4095DE"/>
    </svg>

    <svg id="scroll" width="24" height="35" viewBox="0 0 24 35" fill="none" xmlns="http://www.w3.org/2000/svg">
        <rect x="1" y="1" width="22" height="33" rx="11" stroke="white" stroke-width="2"/>
        <rect x="10" y="8" width="4" height="8" rx="2" fill="white"/>
    </svg>

    <svg id="scroll-light" width="24" height="35" viewBox="0 0 24 35" fill="none" xmlns="http://www.w3.org/2000/svg">
        <rect x="1" y="1" width="22" height="33" rx="11" stroke="#221952" stroke-width="2"/>
        <rect x="10" y="8" width="4" height="8" rx="2" fill="#221952"/>
    </svg>

    <svg id="an_experience-sub-title" width="92" height="16" viewBox="0 0 92 16" fill="none" xmlns="http://www.w3.org/2000/svg">
        <path d="M92 1.22533C92 1.36672 91.9768 1.48454 91.9304 1.60236C91.8839 1.72018 91.7911 1.86156 91.6982 1.97938C91.5821 2.0972 91.4893 2.19146 91.3732 2.26215C91.2571 2.33284 91.1411 2.35641 91.0018 2.35641C90.8857 2.35641 90.7464 2.33284 90.5839 2.26215C90.4446 2.19146 90.2589 2.12077 90.0732 2.00295C90.0035 2.02651 89.9571 2.0972 89.9339 2.21502C89.8875 2.35641 89.8642 2.56848 89.8642 2.85125V14.9632H89.4928L81.4141 1.7673V13.8557C81.4141 15.2931 80.9266 16 79.9283 16C79.7658 16 79.6033 15.9764 79.464 15.9057C79.3248 15.8351 79.2087 15.7644 79.0926 15.6465C78.9765 15.5287 78.9069 15.4109 78.8605 15.2695C78.814 15.1281 78.7908 14.9867 78.7908 14.8218C78.7908 14.6804 78.814 14.5626 78.8605 14.4448C78.9069 14.327 78.9998 14.2091 79.0926 14.0677C79.2087 13.9499 79.3015 13.8557 79.4176 13.785C79.5337 13.7143 79.6498 13.6907 79.7891 13.6907C79.9051 13.6907 80.0444 13.7143 80.2069 13.785C80.3462 13.8557 80.5319 13.9264 80.6944 14.0442C80.7641 14.0206 80.8105 13.9499 80.8337 13.8085C80.8801 13.6672 80.9034 13.4551 80.9034 13.1959V1.64948H79.1623V1.20177H83.7356L89.4232 10.3682V1.53166H89.4464C89.516 1.03682 89.6553 0.659794 89.8642 0.400589C90.0964 0.141384 90.4214 0 90.8393 0C91.0018 0 91.1643 0.0235641 91.3036 0.0942563C91.4428 0.164948 91.5589 0.235641 91.675 0.353461C91.7911 0.471281 91.8607 0.612666 91.9071 0.75405C91.9768 0.895434 92 1.06038 92 1.22533ZM73.3586 1.64948H71.8032V14.5626H73.3586V15.0103H67.671V14.5626H69.2728V1.64948H67.671V1.20177H73.3818V1.64948H73.3586ZM46.058 15.0103H37.2597V1.64948H35.6578V1.20177H39.7901V14.5626H42.1115C42.9473 14.5626 43.7598 14.0913 44.5026 13.1723C44.8277 12.7482 45.083 12.324 45.2687 11.8999C45.4545 11.4757 45.5937 11.028 45.6634 10.5567V10.5096H46.1045V15.0103H46.058ZM11.027 6.55081C11.027 5.34904 10.8645 4.38292 10.5395 3.62887C10.2145 2.87482 9.75019 2.33284 9.10018 1.97938C8.84481 1.838 8.49659 1.74374 8.05551 1.69661C7.59122 1.62592 7.03407 1.60236 6.38405 1.62592L5.3626 1.64948V14.5626H6.7787C7.19657 14.5626 7.54479 14.539 7.84658 14.5155C8.14837 14.4919 8.38052 14.4448 8.56624 14.3741C9.16982 14.1856 9.65733 13.8085 10.0288 13.243C10.4002 12.6775 10.6788 11.947 10.8413 11.028C10.9574 10.3211 11.027 8.83652 11.027 6.55081ZM25.9773 6.90427C25.513 6.90427 25.1183 7.2106 24.9791 7.65832C24.8862 7.68189 24.6308 7.70545 24.3523 7.72901C24.0969 7.75258 23.8415 7.75258 23.6326 7.75258V1.64948H24.1433C24.9558 1.64948 25.6523 1.69661 26.1862 1.7673C26.7202 1.86156 27.138 1.97938 27.4166 2.14433C27.7184 2.33284 27.997 2.66274 28.2755 3.11046C28.5541 3.55817 28.8095 4.17084 29.0648 4.90133V4.92489H29.5059V1.20177H19.5932V1.64948H21.1254V15.0103H29.9702V10.5567V10.5096H29.5756V10.5567C29.3899 11.2636 29.1345 11.8763 28.8559 12.3947C28.5773 12.8895 28.2523 13.2901 27.9041 13.5729C27.5095 13.9028 26.9987 14.162 26.3952 14.327C25.7916 14.4919 25.0719 14.5862 24.2362 14.5862H23.6326V8.22386H23.888C24.2594 8.22386 24.7469 8.22386 24.9558 8.24742C25.0719 8.69514 25.4666 9.02504 25.9541 9.02504C26.5344 9.02504 26.9987 8.55376 26.9987 7.96465C26.9987 7.37555 26.5344 6.90427 25.9773 6.90427ZM57.41 14.5626H55.9011V8.22386C56.2725 8.22386 56.7368 8.22386 57.1315 8.22386C57.2475 8.67158 57.6422 9.02504 58.1297 9.02504C58.7101 9.02504 59.1744 8.55376 59.1744 7.96465C59.1744 7.37555 58.7101 6.90427 58.1297 6.90427C57.6422 6.90427 57.2243 7.25773 57.1315 7.72901C56.7368 7.72901 56.2957 7.75258 55.9011 7.75258V1.64948L57.1779 1.62592C57.6654 1.62592 58.1065 1.67305 58.4779 1.74374C58.8494 1.81443 59.1511 1.93225 59.4065 2.07364C59.8476 2.30928 60.219 2.66274 60.5208 3.13402C60.8458 3.6053 61.1012 4.1944 61.3101 4.92489V4.97202H61.7048H61.7512C61.7512 3.72312 61.7512 2.47423 61.728 1.2489H51.7689V1.64948H53.301V14.5626H51.8617V15.0103H53.301H55.8314H57.3404V14.5626H57.41ZM7.33586 1.1782C7.568 1.1782 7.8698 1.20177 8.21802 1.22533C8.54302 1.2489 8.91446 1.29602 9.33232 1.34315C9.98234 1.41384 10.5627 1.64948 11.0966 2.02651C11.6306 2.40353 12.1181 2.92194 12.536 3.58174C12.9306 4.1944 13.2324 4.8542 13.4181 5.56112C13.6038 6.26804 13.7199 7.02209 13.7199 7.82327C13.7199 8.24742 13.6735 8.69514 13.6038 9.14286C13.5342 9.59057 13.4181 10.0383 13.2788 10.5096C12.8145 12.0177 12.0252 13.1487 10.9109 13.9028C9.79662 14.6568 8.3573 15.0339 6.56977 15.0339H2.85541V1.64948H1.88039C1.99647 1.81443 2.06611 2.02651 2.06611 2.26215C2.06611 2.85125 1.60182 3.32253 1.02145 3.32253C0.44108 3.32253 0 2.82769 0 2.23859C0 1.67305 0.464295 1.20177 1.02145 1.1782H7.33586Z" fill="#155AA7"/>
    </svg>

    <svg id="an_experience-sub-title__light" width="92" height="16" viewBox="0 0 92 16" fill="none" xmlns="http://www.w3.org/2000/svg">
        <path d="M92 1.22533C92 1.36672 91.9768 1.48454 91.9304 1.60236C91.8839 1.72018 91.7911 1.86156 91.6982 1.97938C91.5821 2.0972 91.4893 2.19146 91.3732 2.26215C91.2571 2.33284 91.1411 2.35641 91.0018 2.35641C90.8857 2.35641 90.7464 2.33284 90.5839 2.26215C90.4446 2.19146 90.2589 2.12077 90.0732 2.00295C90.0035 2.02651 89.9571 2.0972 89.9339 2.21502C89.8875 2.35641 89.8642 2.56848 89.8642 2.85125V14.9632H89.4928L81.4141 1.7673V13.8557C81.4141 15.2931 80.9266 16 79.9283 16C79.7658 16 79.6033 15.9764 79.464 15.9057C79.3248 15.8351 79.2087 15.7644 79.0926 15.6465C78.9765 15.5287 78.9069 15.4109 78.8605 15.2695C78.814 15.1281 78.7908 14.9867 78.7908 14.8218C78.7908 14.6804 78.814 14.5626 78.8605 14.4448C78.9069 14.327 78.9998 14.2091 79.0926 14.0677C79.2087 13.9499 79.3015 13.8557 79.4176 13.785C79.5337 13.7143 79.6498 13.6907 79.7891 13.6907C79.9051 13.6907 80.0444 13.7143 80.2069 13.785C80.3462 13.8557 80.5319 13.9264 80.6944 14.0442C80.7641 14.0206 80.8105 13.9499 80.8337 13.8085C80.8801 13.6672 80.9034 13.4551 80.9034 13.1959V1.64948H79.1623V1.20177H83.7356L89.4232 10.3682V1.53166H89.4464C89.516 1.03682 89.6553 0.659794 89.8642 0.400589C90.0964 0.141384 90.4214 0 90.8393 0C91.0018 0 91.1643 0.0235641 91.3036 0.0942563C91.4428 0.164948 91.5589 0.235641 91.675 0.353461C91.7911 0.471281 91.8607 0.612666 91.9071 0.75405C91.9768 0.895434 92 1.06038 92 1.22533ZM73.3586 1.64948H71.8032V14.5626H73.3586V15.0103H67.671V14.5626H69.2728V1.64948H67.671V1.20177H73.3818V1.64948H73.3586ZM46.058 15.0103H37.2597V1.64948H35.6578V1.20177H39.7901V14.5626H42.1115C42.9473 14.5626 43.7598 14.0913 44.5026 13.1723C44.8277 12.7482 45.083 12.324 45.2687 11.8999C45.4545 11.4757 45.5937 11.028 45.6634 10.5567V10.5096H46.1045V15.0103H46.058ZM11.027 6.55081C11.027 5.34904 10.8645 4.38292 10.5395 3.62887C10.2145 2.87482 9.75019 2.33284 9.10018 1.97938C8.84481 1.838 8.49659 1.74374 8.05551 1.69661C7.59122 1.62592 7.03407 1.60236 6.38405 1.62592L5.3626 1.64948V14.5626H6.7787C7.19657 14.5626 7.54479 14.539 7.84658 14.5155C8.14837 14.4919 8.38052 14.4448 8.56624 14.3741C9.16982 14.1856 9.65733 13.8085 10.0288 13.243C10.4002 12.6775 10.6788 11.947 10.8413 11.028C10.9574 10.3211 11.027 8.83652 11.027 6.55081ZM25.9773 6.90427C25.513 6.90427 25.1183 7.2106 24.9791 7.65832C24.8862 7.68189 24.6308 7.70545 24.3523 7.72901C24.0969 7.75258 23.8415 7.75258 23.6326 7.75258V1.64948H24.1433C24.9558 1.64948 25.6523 1.69661 26.1862 1.7673C26.7202 1.86156 27.138 1.97938 27.4166 2.14433C27.7184 2.33284 27.997 2.66274 28.2755 3.11046C28.5541 3.55817 28.8095 4.17084 29.0648 4.90133V4.92489H29.5059V1.20177H19.5932V1.64948H21.1254V15.0103H29.9702V10.5567V10.5096H29.5756V10.5567C29.3899 11.2636 29.1345 11.8763 28.8559 12.3947C28.5773 12.8895 28.2523 13.2901 27.9041 13.5729C27.5095 13.9028 26.9987 14.162 26.3952 14.327C25.7916 14.4919 25.0719 14.5862 24.2362 14.5862H23.6326V8.22386H23.888C24.2594 8.22386 24.7469 8.22386 24.9558 8.24742C25.0719 8.69514 25.4666 9.02504 25.9541 9.02504C26.5344 9.02504 26.9987 8.55376 26.9987 7.96465C26.9987 7.37555 26.5344 6.90427 25.9773 6.90427ZM57.41 14.5626H55.9011V8.22386C56.2725 8.22386 56.7368 8.22386 57.1315 8.22386C57.2475 8.67158 57.6422 9.02504 58.1297 9.02504C58.7101 9.02504 59.1744 8.55376 59.1744 7.96465C59.1744 7.37555 58.7101 6.90427 58.1297 6.90427C57.6422 6.90427 57.2243 7.25773 57.1315 7.72901C56.7368 7.72901 56.2957 7.75258 55.9011 7.75258V1.64948L57.1779 1.62592C57.6654 1.62592 58.1065 1.67305 58.4779 1.74374C58.8494 1.81443 59.1511 1.93225 59.4065 2.07364C59.8476 2.30928 60.219 2.66274 60.5208 3.13402C60.8458 3.6053 61.1012 4.1944 61.3101 4.92489V4.97202H61.7048H61.7512C61.7512 3.72312 61.7512 2.47423 61.728 1.2489H51.7689V1.64948H53.301V14.5626H51.8617V15.0103H53.301H55.8314H57.3404V14.5626H57.41ZM7.33586 1.1782C7.568 1.1782 7.8698 1.20177 8.21802 1.22533C8.54302 1.2489 8.91446 1.29602 9.33232 1.34315C9.98234 1.41384 10.5627 1.64948 11.0966 2.02651C11.6306 2.40353 12.1181 2.92194 12.536 3.58174C12.9306 4.1944 13.2324 4.8542 13.4181 5.56112C13.6038 6.26804 13.7199 7.02209 13.7199 7.82327C13.7199 8.24742 13.6735 8.69514 13.6038 9.14286C13.5342 9.59057 13.4181 10.0383 13.2788 10.5096C12.8145 12.0177 12.0252 13.1487 10.9109 13.9028C9.79662 14.6568 8.3573 15.0339 6.56977 15.0339H2.85541V1.64948H1.88039C1.99647 1.81443 2.06611 2.02651 2.06611 2.26215C2.06611 2.85125 1.60182 3.32253 1.02145 3.32253C0.44108 3.32253 0 2.82769 0 2.23859C0 1.67305 0.464295 1.20177 1.02145 1.1782H7.33586Z" fill="white"/>
    </svg>

    <svg id="an_experience-sub-title-mob" width="46" height="8" viewBox="0 0 46 8" fill="none" xmlns="http://www.w3.org/2000/svg">
        <path d="M46 0.612666C46 0.683358 45.9884 0.742268 45.9652 0.801178C45.942 0.860088 45.8955 0.930781 45.8491 0.989691C45.7911 1.0486 45.7446 1.09573 45.6866 1.13108C45.6286 1.16642 45.5705 1.1782 45.5009 1.1782C45.4428 1.1782 45.3732 1.16642 45.292 1.13108C45.2223 1.09573 45.1294 1.06038 45.0366 1.00147C45.0018 1.01325 44.9785 1.0486 44.9669 1.10751C44.9437 1.1782 44.9321 1.28424 44.9321 1.42563V7.48159H44.7464L40.707 0.883652V6.92783C40.707 7.64654 40.4633 8 39.9642 8C39.8829 8 39.8017 7.98822 39.732 7.95287C39.6624 7.91753 39.6043 7.88218 39.5463 7.82327C39.4883 7.76436 39.4534 7.70545 39.4302 7.63476C39.407 7.56406 39.3954 7.49337 39.3954 7.4109C39.3954 7.34021 39.407 7.2813 39.4302 7.22239C39.4534 7.16348 39.4999 7.10457 39.5463 7.03387C39.6043 6.97496 39.6508 6.92783 39.7088 6.89249C39.7668 6.85714 39.8249 6.84536 39.8945 6.84536C39.9526 6.84536 40.0222 6.85714 40.1035 6.89249C40.1731 6.92783 40.266 6.96318 40.3472 7.02209C40.382 7.01031 40.4053 6.97496 40.4169 6.90427C40.4401 6.83358 40.4517 6.72754 40.4517 6.59794V0.824742H39.5811V0.600884H41.8678L44.7116 5.18409V0.765832H44.7232C44.758 0.518409 44.8277 0.329897 44.9321 0.200295C45.0482 0.0706922 45.2107 0 45.4196 0C45.5009 0 45.5821 0.011782 45.6518 0.0471281C45.7214 0.0824742 45.7795 0.11782 45.8375 0.17673C45.8955 0.235641 45.9304 0.306333 45.9536 0.377025C45.9884 0.447717 46 0.530191 46 0.612666ZM36.6793 0.824742H35.9016V7.2813H36.6793V7.50515H33.8355V7.2813H34.6364V0.824742H33.8355V0.600884H36.6909V0.824742H36.6793ZM23.029 7.50515H18.6298V0.824742H17.8289V0.600884H19.895V7.2813H21.0558C21.4736 7.2813 21.8799 7.04566 22.2513 6.58616C22.4138 6.37408 22.5415 6.162 22.6344 5.94993C22.7272 5.73785 22.7969 5.51399 22.8317 5.27835V5.25479H23.0522V7.50515H23.029ZM5.5135 3.2754C5.5135 2.67452 5.43225 2.19146 5.26975 1.81443C5.10724 1.43741 4.87509 1.16642 4.55009 0.989691C4.42241 0.918998 4.2483 0.87187 4.02776 0.848306C3.79561 0.81296 3.51703 0.801178 3.19203 0.81296L2.6813 0.824742V7.2813H3.38935C3.59828 7.2813 3.77239 7.26951 3.92329 7.25773C4.07419 7.24595 4.19026 7.22239 4.28312 7.18704C4.58491 7.09278 4.82867 6.90427 5.01438 6.6215C5.2001 6.33873 5.33939 5.97349 5.42064 5.51399C5.47868 5.16053 5.5135 4.41826 5.5135 3.2754ZM12.9886 3.45214C12.7565 3.45214 12.5592 3.6053 12.4895 3.82916C12.4431 3.84094 12.3154 3.85272 12.1761 3.86451C12.0484 3.87629 11.9208 3.87629 11.8163 3.87629V0.824742H12.0717C12.4779 0.824742 12.8261 0.848306 13.0931 0.883652C13.3601 0.930781 13.569 0.989691 13.7083 1.07217C13.8592 1.16642 13.9985 1.33137 14.1378 1.55523C14.2771 1.77909 14.4047 2.08542 14.5324 2.45066V2.46244H14.753V0.600884H9.79662V0.824742H10.5627V7.50515H14.9851V5.27835V5.25479H14.7878V5.27835C14.6949 5.63181 14.5672 5.93814 14.428 6.19735C14.2887 6.44477 14.1262 6.64507 13.9521 6.78645C13.7547 6.9514 13.4994 7.081 13.1976 7.16348C12.8958 7.24595 12.536 7.29308 12.1181 7.29308H11.8163V4.11193H11.944C12.1297 4.11193 12.3735 4.11193 12.4779 4.12371C12.536 4.34757 12.7333 4.51252 12.977 4.51252C13.2672 4.51252 13.4994 4.27688 13.4994 3.98233C13.4994 3.68778 13.2672 3.45214 12.9886 3.45214ZM28.705 7.2813H27.9505V4.11193C28.1363 4.11193 28.3684 4.11193 28.5657 4.11193C28.6238 4.33579 28.8211 4.51252 29.0648 4.51252C29.355 4.51252 29.5872 4.27688 29.5872 3.98233C29.5872 3.68778 29.355 3.45214 29.0648 3.45214C28.8211 3.45214 28.6122 3.62887 28.5657 3.86451C28.3684 3.86451 28.1479 3.87629 27.9505 3.87629V0.824742L28.5889 0.81296C28.8327 0.81296 29.0532 0.836524 29.239 0.87187C29.4247 0.907216 29.5756 0.966127 29.7033 1.03682C29.9238 1.15464 30.1095 1.33137 30.2604 1.56701C30.4229 1.80265 30.5506 2.0972 30.6551 2.46244V2.48601H30.8524H30.8756C30.8756 1.86156 30.8756 1.23711 30.864 0.624448H25.8844V0.824742H26.6505V7.2813H25.9309V7.50515H26.6505H27.9157H28.6702V7.2813H28.705ZM3.66793 0.589102C3.784 0.589102 3.9349 0.600884 4.10901 0.612666C4.27151 0.624448 4.45723 0.648012 4.66616 0.671576C4.99117 0.706922 5.28135 0.824742 5.54832 1.01325C5.81529 1.20177 6.05905 1.46097 6.26798 1.79087C6.4653 2.0972 6.6162 2.4271 6.70906 2.78056C6.80192 3.13402 6.85995 3.51105 6.85995 3.91163C6.85995 4.12371 6.83674 4.34757 6.80192 4.57143C6.7671 4.79529 6.70906 5.01915 6.63941 5.25479C6.40727 6.00884 6.01262 6.57437 5.45546 6.9514C4.89831 7.32842 4.17865 7.51694 3.28489 7.51694H1.42771V0.824742H0.940197C0.998234 0.907216 1.03306 1.01325 1.03306 1.13108C1.03306 1.42563 0.800908 1.66127 0.510724 1.66127C0.22054 1.66127 0 1.41384 0 1.11929C0 0.836524 0.232147 0.600884 0.510724 0.589102H3.66793Z" fill="#155AA7"/>
    </svg>

    <svg id="an_experience-sub-title__light-mob" width="46" height="8" viewBox="0 0 46 8" fill="none" xmlns="http://www.w3.org/2000/svg">
        <path d="M46 0.612666C46 0.683358 45.9884 0.742268 45.9652 0.801178C45.942 0.860088 45.8955 0.930781 45.8491 0.989691C45.7911 1.0486 45.7446 1.09573 45.6866 1.13108C45.6286 1.16642 45.5705 1.1782 45.5009 1.1782C45.4428 1.1782 45.3732 1.16642 45.292 1.13108C45.2223 1.09573 45.1294 1.06038 45.0366 1.00147C45.0018 1.01325 44.9785 1.0486 44.9669 1.10751C44.9437 1.1782 44.9321 1.28424 44.9321 1.42563V7.48159H44.7464L40.707 0.883652V6.92783C40.707 7.64654 40.4633 8 39.9642 8C39.8829 8 39.8017 7.98822 39.732 7.95287C39.6624 7.91753 39.6043 7.88218 39.5463 7.82327C39.4883 7.76436 39.4534 7.70545 39.4302 7.63476C39.407 7.56406 39.3954 7.49337 39.3954 7.4109C39.3954 7.34021 39.407 7.2813 39.4302 7.22239C39.4534 7.16348 39.4999 7.10457 39.5463 7.03387C39.6043 6.97496 39.6508 6.92783 39.7088 6.89249C39.7668 6.85714 39.8249 6.84536 39.8945 6.84536C39.9526 6.84536 40.0222 6.85714 40.1035 6.89249C40.1731 6.92783 40.266 6.96318 40.3472 7.02209C40.382 7.01031 40.4053 6.97496 40.4169 6.90427C40.4401 6.83358 40.4517 6.72754 40.4517 6.59794V0.824742H39.5811V0.600884H41.8678L44.7116 5.18409V0.765832H44.7232C44.758 0.518409 44.8277 0.329897 44.9321 0.200295C45.0482 0.0706922 45.2107 0 45.4196 0C45.5009 0 45.5821 0.011782 45.6518 0.0471281C45.7214 0.0824742 45.7795 0.11782 45.8375 0.17673C45.8955 0.235641 45.9304 0.306333 45.9536 0.377025C45.9884 0.447717 46 0.530191 46 0.612666ZM36.6793 0.824742H35.9016V7.2813H36.6793V7.50515H33.8355V7.2813H34.6364V0.824742H33.8355V0.600884H36.6909V0.824742H36.6793ZM23.029 7.50515H18.6298V0.824742H17.8289V0.600884H19.895V7.2813H21.0558C21.4736 7.2813 21.8799 7.04566 22.2513 6.58616C22.4138 6.37408 22.5415 6.162 22.6344 5.94993C22.7272 5.73785 22.7969 5.51399 22.8317 5.27835V5.25479H23.0522V7.50515H23.029ZM5.5135 3.2754C5.5135 2.67452 5.43225 2.19146 5.26975 1.81443C5.10724 1.43741 4.87509 1.16642 4.55009 0.989691C4.42241 0.918998 4.2483 0.87187 4.02776 0.848306C3.79561 0.81296 3.51703 0.801178 3.19203 0.81296L2.6813 0.824742V7.2813H3.38935C3.59828 7.2813 3.77239 7.26951 3.92329 7.25773C4.07419 7.24595 4.19026 7.22239 4.28312 7.18704C4.58491 7.09278 4.82867 6.90427 5.01438 6.6215C5.2001 6.33873 5.33939 5.97349 5.42064 5.51399C5.47868 5.16053 5.5135 4.41826 5.5135 3.2754ZM12.9886 3.45214C12.7565 3.45214 12.5592 3.6053 12.4895 3.82916C12.4431 3.84094 12.3154 3.85272 12.1761 3.86451C12.0484 3.87629 11.9208 3.87629 11.8163 3.87629V0.824742H12.0717C12.4779 0.824742 12.8261 0.848306 13.0931 0.883652C13.3601 0.930781 13.569 0.989691 13.7083 1.07217C13.8592 1.16642 13.9985 1.33137 14.1378 1.55523C14.2771 1.77909 14.4047 2.08542 14.5324 2.45066V2.46244H14.753V0.600884H9.79662V0.824742H10.5627V7.50515H14.9851V5.27835V5.25479H14.7878V5.27835C14.6949 5.63181 14.5672 5.93814 14.428 6.19735C14.2887 6.44477 14.1262 6.64507 13.9521 6.78645C13.7547 6.9514 13.4994 7.081 13.1976 7.16348C12.8958 7.24595 12.536 7.29308 12.1181 7.29308H11.8163V4.11193H11.944C12.1297 4.11193 12.3735 4.11193 12.4779 4.12371C12.536 4.34757 12.7333 4.51252 12.977 4.51252C13.2672 4.51252 13.4994 4.27688 13.4994 3.98233C13.4994 3.68778 13.2672 3.45214 12.9886 3.45214ZM28.705 7.2813H27.9505V4.11193C28.1363 4.11193 28.3684 4.11193 28.5657 4.11193C28.6238 4.33579 28.8211 4.51252 29.0648 4.51252C29.355 4.51252 29.5872 4.27688 29.5872 3.98233C29.5872 3.68778 29.355 3.45214 29.0648 3.45214C28.8211 3.45214 28.6122 3.62887 28.5657 3.86451C28.3684 3.86451 28.1479 3.87629 27.9505 3.87629V0.824742L28.5889 0.81296C28.8327 0.81296 29.0532 0.836524 29.239 0.87187C29.4247 0.907216 29.5756 0.966127 29.7033 1.03682C29.9238 1.15464 30.1095 1.33137 30.2604 1.56701C30.4229 1.80265 30.5506 2.0972 30.6551 2.46244V2.48601H30.8524H30.8756C30.8756 1.86156 30.8756 1.23711 30.864 0.624448H25.8844V0.824742H26.6505V7.2813H25.9309V7.50515H26.6505H27.9157H28.6702V7.2813H28.705ZM3.66793 0.589102C3.784 0.589102 3.9349 0.600884 4.10901 0.612666C4.27151 0.624448 4.45723 0.648012 4.66616 0.671576C4.99117 0.706922 5.28135 0.824742 5.54832 1.01325C5.81529 1.20177 6.05905 1.46097 6.26798 1.79087C6.4653 2.0972 6.6162 2.4271 6.70906 2.78056C6.80192 3.13402 6.85995 3.51105 6.85995 3.91163C6.85995 4.12371 6.83674 4.34757 6.80192 4.57143C6.7671 4.79529 6.70906 5.01915 6.63941 5.25479C6.40727 6.00884 6.01262 6.57437 5.45546 6.9514C4.89831 7.32842 4.17865 7.51694 3.28489 7.51694H1.42771V0.824742H0.940197C0.998234 0.907216 1.03306 1.01325 1.03306 1.13108C1.03306 1.42563 0.800908 1.66127 0.510724 1.66127C0.22054 1.66127 0 1.41384 0 1.11929C0 0.836524 0.232147 0.600884 0.510724 0.589102H3.66793Z" fill="white"/>
    </svg>

    <svg id="an_experience-sub-title__single" width="92" height="16" viewBox="0 0 92 16" fill="none" xmlns="http://www.w3.org/2000/svg">
        <path d="M92 1.22533C92 1.36672 91.9768 1.48454 91.9304 1.60236C91.8839 1.72018 91.7911 1.86156 91.6982 1.97938C91.5821 2.0972 91.4893 2.19146 91.3732 2.26215C91.2571 2.33284 91.1411 2.35641 91.0018 2.35641C90.8857 2.35641 90.7464 2.33284 90.5839 2.26215C90.4446 2.19146 90.2589 2.12077 90.0732 2.00295C90.0035 2.02651 89.9571 2.0972 89.9339 2.21502C89.8875 2.35641 89.8643 2.56848 89.8643 2.85125V14.9632H89.4928L81.4141 1.7673V13.8557C81.4141 15.2931 80.9266 16 79.9283 16C79.7658 16 79.6033 15.9764 79.464 15.9057C79.3248 15.8351 79.2087 15.7644 79.0926 15.6465C78.9765 15.5287 78.9069 15.4109 78.8605 15.2695C78.814 15.1281 78.7908 14.9867 78.7908 14.8218C78.7908 14.6804 78.814 14.5626 78.8605 14.4448C78.9069 14.327 78.9997 14.2091 79.0926 14.0677C79.2087 13.9499 79.3015 13.8557 79.4176 13.785C79.5337 13.7143 79.6498 13.6907 79.7891 13.6907C79.9051 13.6907 80.0444 13.7143 80.2069 13.785C80.3462 13.8557 80.5319 13.9264 80.6944 14.0442C80.7641 14.0206 80.8105 13.9499 80.8337 13.8085C80.8801 13.6672 80.9034 13.4551 80.9034 13.1959V1.64948H79.1623V1.20177H83.7356L89.4232 10.3682V1.53166H89.4464C89.516 1.03682 89.6553 0.659794 89.8643 0.400589C90.0964 0.141384 90.4214 0 90.8393 0C91.0018 0 91.1643 0.0235641 91.3036 0.0942563C91.4428 0.164948 91.5589 0.235641 91.675 0.353461C91.7911 0.471281 91.8607 0.612666 91.9071 0.75405C91.9768 0.895434 92 1.06038 92 1.22533ZM73.3586 1.64948H71.8032V14.5626H73.3586V15.0103H67.671V14.5626H69.2728V1.64948H67.671V1.20177H73.3818V1.64948H73.3586ZM46.058 15.0103H37.2597V1.64948H35.6578V1.20177H39.7901V14.5626H42.1115C42.9473 14.5626 43.7598 14.0913 44.5027 13.1723C44.8277 12.7482 45.083 12.324 45.2687 11.8999C45.4545 11.4757 45.5937 11.028 45.6634 10.5567V10.5096H46.1045V15.0103H46.058ZM11.027 6.55081C11.027 5.34904 10.8645 4.38292 10.5395 3.62887C10.2145 2.87482 9.75019 2.33284 9.10018 1.97938C8.84482 1.838 8.49659 1.74374 8.05551 1.69661C7.59122 1.62592 7.03407 1.60236 6.38405 1.62592L5.3626 1.64948V14.5626H6.7787C7.19657 14.5626 7.54479 14.539 7.84658 14.5155C8.14837 14.4919 8.38052 14.4448 8.56624 14.3741C9.16982 14.1856 9.65733 13.8085 10.0288 13.243C10.4002 12.6775 10.6788 11.947 10.8413 11.028C10.9574 10.3211 11.027 8.83652 11.027 6.55081ZM25.9773 6.90427C25.513 6.90427 25.1183 7.2106 24.9791 7.65832C24.8862 7.68189 24.6308 7.70545 24.3523 7.72901C24.0969 7.75258 23.8415 7.75258 23.6326 7.75258V1.64948H24.1433C24.9558 1.64948 25.6523 1.69661 26.1862 1.7673C26.7202 1.86156 27.138 1.97938 27.4166 2.14433C27.7184 2.33284 27.997 2.66274 28.2755 3.11046C28.5541 3.55817 28.8095 4.17084 29.0648 4.90133V4.92489H29.5059V1.20177H19.5932V1.64948H21.1254V15.0103H29.9702V10.5567V10.5096H29.5756V10.5567C29.3899 11.2636 29.1345 11.8763 28.8559 12.3947C28.5773 12.8895 28.2523 13.2901 27.9041 13.5729C27.5095 13.9028 26.9987 14.162 26.3952 14.327C25.7916 14.4919 25.0719 14.5862 24.2362 14.5862H23.6326V8.22386H23.888C24.2594 8.22386 24.7469 8.22386 24.9558 8.24742C25.0719 8.69514 25.4666 9.02504 25.9541 9.02504C26.5344 9.02504 26.9987 8.55375 26.9987 7.96465C26.9987 7.37555 26.5344 6.90427 25.9773 6.90427ZM57.41 14.5626H55.9011V8.22386C56.2725 8.22386 56.7368 8.22386 57.1315 8.22386C57.2475 8.67158 57.6422 9.02504 58.1297 9.02504C58.7101 9.02504 59.1744 8.55375 59.1744 7.96465C59.1744 7.37555 58.7101 6.90427 58.1297 6.90427C57.6422 6.90427 57.2243 7.25773 57.1315 7.72901C56.7368 7.72901 56.2957 7.75258 55.9011 7.75258V1.64948L57.1779 1.62592C57.6654 1.62592 58.1065 1.67305 58.4779 1.74374C58.8494 1.81443 59.1511 1.93225 59.4065 2.07364C59.8476 2.30928 60.219 2.66274 60.5208 3.13402C60.8458 3.6053 61.1012 4.1944 61.3101 4.92489V4.97202H61.7048H61.7512C61.7512 3.72312 61.7512 2.47423 61.728 1.2489H51.7689V1.64948H53.301V14.5626H51.8617V15.0103H53.301H55.8314H57.3404V14.5626H57.41ZM7.33586 1.1782C7.568 1.1782 7.8698 1.20177 8.21802 1.22533C8.54302 1.2489 8.91446 1.29602 9.33232 1.34315C9.98234 1.41384 10.5627 1.64948 11.0966 2.02651C11.6306 2.40353 12.1181 2.92194 12.536 3.58174C12.9306 4.1944 13.2324 4.8542 13.4181 5.56112C13.6038 6.26804 13.7199 7.02209 13.7199 7.82327C13.7199 8.24742 13.6735 8.69514 13.6038 9.14286C13.5342 9.59057 13.4181 10.0383 13.2788 10.5096C12.8145 12.0177 12.0252 13.1487 10.9109 13.9028C9.79662 14.6568 8.3573 15.0339 6.56977 15.0339H2.85541V1.64948H1.88039C1.99647 1.81443 2.06611 2.02651 2.06611 2.26215C2.06611 2.85125 1.60182 3.32253 1.02145 3.32253C0.44108 3.32253 0 2.82769 0 2.23859C0 1.67305 0.464295 1.20177 1.02145 1.1782H7.33586Z" fill="#221952"/>
    </svg>

    <svg id="icon-1" width="112" height="112" viewBox="0 0 112 112" fill="none" xmlns="http://www.w3.org/2000/svg">
        <path opacity="0.5" fill-rule="evenodd" clip-rule="evenodd" d="M4.26276 34.5697C1.4485 41.3639 1.2811e-05 48.646 1.2811e-05 56H0.00630325C5.50482 29.3699 28.2205 9.03345 56 7.14413L56 0C48.646 0 41.364 1.44848 34.5697 4.26274C27.7755 7.07701 21.6021 11.2019 16.402 16.402C11.202 21.6021 7.07702 27.7755 4.26276 34.5697Z" fill="#4095DE"/>
        <path opacity="0.5" fill-rule="evenodd" clip-rule="evenodd" d="M107.737 77.4303C110.552 70.6361 112 63.354 112 56L111.994 56C106.495 82.6301 83.7795 102.967 56 104.856L56 112C63.354 112 70.636 110.552 77.4303 107.737C84.2245 104.923 90.3979 100.798 95.598 95.598C100.798 90.3979 104.923 84.2245 107.737 77.4303Z" fill="#4095DE"/>
        <path fill-rule="evenodd" clip-rule="evenodd" d="M37.3332 51.3333H42.6665V69.9999H37.3332V51.3333ZM53.3332 69.9999V51.3333H58.6665V69.8797C58.6532 69.9197 58.64 69.9598 58.627 69.9999H53.3332ZM58.0675 75.3332H30.6665V80.6666H59.8372C58.886 79.0773 58.2646 77.2681 58.0675 75.3332ZM74.6665 61.5242V51.3333H69.3332V61.1059C69.8789 61.036 70.4353 61 71 61C72.2732 61 73.5037 61.183 74.6665 61.5242ZM69.8932 40.6666L55.9998 33.3599L42.1065 40.6666H69.8932ZM30.6665 40.6666L55.9998 27.3333L81.3332 40.6666V45.9999H30.6665V40.6666Z" fill="#4095DE"/>
        <path d="M68.2333 74.1591L76.3707 66L79 69.2045L68.2333 80L62 73.1818L64.6293 70.5455L68.2333 74.1591Z" fill="#4095DE"/>
    </svg>

    <svg id="icon-2" width="112" height="112" viewBox="0 0 112 112" fill="none" xmlns="http://www.w3.org/2000/svg">
        <path opacity="0.5" fill-rule="evenodd" clip-rule="evenodd" d="M4.26277 34.5697C1.44851 41.3639 2.80697e-05 48.646 2.80697e-05 56H0.00631851C5.50484 29.3699 28.2205 9.03345 56 7.14413L56 0C48.646 0 41.364 1.44848 34.5697 4.26274C27.7755 7.07701 21.6021 11.2019 16.402 16.402C11.202 21.6021 7.07704 27.7755 4.26277 34.5697Z" fill="#4095DE"/>
        <path opacity="0.5" fill-rule="evenodd" clip-rule="evenodd" d="M107.737 77.4303C110.552 70.6361 112 63.354 112 56L111.994 56C106.495 82.6301 83.7795 102.967 56 104.856L56 112C63.354 112 70.636 110.552 77.4303 107.737C84.2245 104.923 90.3979 100.798 95.598 95.598C100.798 90.3979 104.923 84.2245 107.737 77.4303Z" fill="#4095DE"/>
        <path d="M50.4884 38.9692H32.2791V52.5653C34.6511 51.3691 37.1395 50.7709 39.7442 50.7709C43.7442 50.7709 46.9535 52.0822 49.3721 54.7048C51.7907 57.2814 53 60.8473 53 65.4023C53 68.4391 52.3256 71.1537 50.9767 73.5463C49.6279 75.8928 47.7209 77.7332 45.2558 79.0675C42.8372 80.3558 40.0232 81 36.8139 81C33.9767 81 31.4418 80.5169 29.2093 79.5507C26.9767 78.5384 24.907 77.0661 23 75.1336L26.7674 71.4758C28.2558 72.9481 29.7907 74.0524 31.3721 74.7885C32.9535 75.4787 34.7442 75.8238 36.7442 75.8238C39.7209 75.8238 42.0465 74.9036 43.7209 73.0631C45.4418 71.2227 46.3023 68.6231 46.3023 65.2643C46.3023 61.9055 45.5349 59.467 44 57.9486C42.4651 56.4302 40.3953 55.6711 37.7907 55.6711C36.5814 55.6711 35.4651 55.8091 34.4418 56.0852C33.4186 56.3152 32.3256 56.7063 31.1628 57.2584H26.1395V34H51.3953L50.4884 38.9692Z" fill="#4095DE"/>
        <path fill-rule="evenodd" clip-rule="evenodd" d="M85.0558 39.1823C82.4725 35.0608 78.6205 33 73.5 33C68.3794 33 64.5044 35.0608 61.875 39.1823C59.2917 43.2576 58 49.1852 58 56.9653C58 64.7453 59.2917 70.6961 61.875 74.8177C64.5044 78.9392 68.3794 81 73.5 81C73.8821 81 74.2572 80.9885 74.6252 80.9656C72.7053 79.598 71.2434 77.6292 70.5143 75.3339C68.9661 74.6462 67.724 73.3627 66.7879 71.4834C65.3579 68.4732 64.6428 63.6339 64.6428 56.9653C64.6428 50.2967 65.3579 45.4805 66.7879 42.5166C68.2641 39.5528 70.5015 38.0709 73.5 38.0709C76.4524 38.0709 78.6667 39.576 80.1428 42.5861C81.619 45.5499 82.3571 50.343 82.3571 56.9653C82.3571 58.4208 82.322 59.7892 82.2516 61.0704C84.6907 61.3467 86.888 62.4206 88.5764 64.0251C88.8588 61.8683 89 59.515 89 56.9653C89 49.1852 87.6853 43.2576 85.0558 39.1823Z" fill="#4095DE"/>
        <path d="M83 64H79V70H73V74H79V80H83V74H89V70H83V64Z" fill="#4095DE"/>
    </svg>

    <svg id="icon-3" width="112" height="112" viewBox="0 0 112 112" fill="none" xmlns="http://www.w3.org/2000/svg">
        <path opacity="0.5" fill-rule="evenodd" clip-rule="evenodd" d="M4.26277 34.5697C1.44851 41.3639 2.80697e-05 48.646 2.80697e-05 56H0.00631851C5.50484 29.3699 28.2205 9.03345 56 7.14413L56 0C48.646 0 41.364 1.44848 34.5697 4.26274C27.7755 7.07701 21.6021 11.2019 16.402 16.402C11.202 21.6021 7.07704 27.7755 4.26277 34.5697Z" fill="#4095DE"/>
        <path opacity="0.5" fill-rule="evenodd" clip-rule="evenodd" d="M107.737 77.4303C110.552 70.6361 112 63.354 112 56L111.994 56C106.495 82.6301 83.7795 102.967 56 104.856L56 112C63.354 112 70.636 110.552 77.4303 107.737C84.2245 104.923 90.3979 100.798 95.598 95.598C100.798 90.3979 104.923 84.2245 107.737 77.4303Z" fill="#4095DE"/>
        <path d="M49.5223 34.7775H59.6042V39.8184H50.5305L55.5715 44.8594H74.7271V64.015L79.7681 69.056V44.8594C79.7681 42.0617 77.5249 39.8184 74.7271 39.8184H64.6452V34.7775C64.6452 31.9798 62.402 29.7365 59.6042 29.7365H49.5223C47.0271 29.7365 44.9855 31.5009 44.5822 33.8701L49.5223 38.8103V34.7775ZM32.8872 29.3333L29.3333 32.8871L36.2646 39.8184H34.3995C31.6017 39.8184 29.3837 42.0617 29.3837 44.8594L29.3585 72.5847C29.3585 75.3824 31.6017 77.6256 34.3995 77.6256H74.0718L79.1128 82.6666L82.6666 79.1127L32.8872 29.3333ZM34.3995 72.5847V44.8594H41.3056L69.0308 72.5847H34.3995Z" fill="#4095DE"/>
    </svg>

    <svg id="icon-4" width="112" height="112" viewBox="0 0 112 112" fill="none" xmlns="http://www.w3.org/2000/svg">
        <path opacity="0.5" fill-rule="evenodd" clip-rule="evenodd" d="M4.26276 34.5697C1.4485 41.3639 1.2811e-05 48.646 1.2811e-05 56H0.00630325C5.50482 29.3699 28.2205 9.03345 56 7.14413L56 0C48.646 0 41.364 1.44848 34.5697 4.26274C27.7755 7.07701 21.6021 11.2019 16.402 16.402C11.202 21.6021 7.07702 27.7755 4.26276 34.5697Z" fill="#4095DE"/>
        <path opacity="0.5" fill-rule="evenodd" clip-rule="evenodd" d="M107.737 77.4303C110.552 70.6361 112 63.354 112 56L111.994 56C106.495 82.6301 83.7795 102.967 56 104.856L56 112C63.354 112 70.636 110.552 77.4303 107.737C84.2245 104.923 90.3979 100.798 95.598 95.598C100.798 90.3979 104.923 84.2245 107.737 77.4303Z" fill="#4095DE"/>
        <path fill-rule="evenodd" clip-rule="evenodd" d="M42.2827 40.5254L29.3334 47.0001L56 60.3334L60.0605 58.3032L57.1095 55.3521L56 55.9067L38.1834 47.0001L45.2332 43.4758L42.2827 40.5254ZM62.7667 52.5241L73.8167 47.0001L56 38.0934L50.8904 40.6478L47.9396 37.697L56 33.6667L82.6667 47.0001L65.7174 55.4748L62.7667 52.5241ZM63.1672 61.4098L56 64.9934L34.6734 54.3301L29.3334 57.0001L56 70.3334L66.7272 64.9698L63.1672 61.4098ZM72.384 62.1414L68.824 58.5814L77.3267 54.3301L82.6667 57.0001L72.384 62.1414ZM69.8338 68.0765L56 74.9934L34.6734 64.3301L29.3334 67.0001L56 80.3334L73.3938 71.6365L69.8338 68.0765ZM79.0507 68.8081L75.4907 65.2481L77.3267 64.3301L82.6667 67.0001L79.0507 68.8081Z" fill="#4095DE"/>
        <rect x="32.4567" y="30.2139" width="68.8801" height="6" transform="rotate(45 32.4567 30.2139)" fill="#4095DE"/>
    </svg>

    <svg id="icon-5" width="112" height="112" viewBox="0 0 112 112" fill="none" xmlns="http://www.w3.org/2000/svg">
        <path opacity="0.5" fill-rule="evenodd" clip-rule="evenodd" d="M4.26276 34.5697C1.4485 41.3639 1.2811e-05 48.646 1.2811e-05 56H0.00630325C5.50482 29.3699 28.2205 9.03345 56 7.14413L56 0C48.646 0 41.364 1.44848 34.5697 4.26274C27.7755 7.07701 21.6021 11.2019 16.402 16.402C11.202 21.6021 7.07702 27.7755 4.26276 34.5697Z" fill="#4095DE"/>
        <path opacity="0.5" fill-rule="evenodd" clip-rule="evenodd" d="M107.737 77.4303C110.552 70.6361 112 63.354 112 56L111.994 56C106.495 82.6301 83.7795 102.967 56 104.856L56 112C63.354 112 70.636 110.552 77.4303 107.737C84.2245 104.923 90.3979 100.798 95.598 95.598C100.798 90.3979 104.923 84.2245 107.737 77.4303Z" fill="#4095DE"/>
        <path fill-rule="evenodd" clip-rule="evenodd" d="M51.6161 56.5235C44.6686 56.5235 39.4276 51.2824 39.4276 44.335C39.4276 37.3875 44.6686 32.1465 51.6161 32.1465C58.5635 32.1465 63.8046 37.3875 63.8046 44.335C63.8046 51.2824 58.5635 56.5235 51.6161 56.5235ZM51.6161 50.4292C55.2056 50.4292 57.7103 47.9245 57.7103 44.335C57.7103 40.7455 55.2056 38.2407 51.6161 38.2407C48.0265 38.2407 45.5218 40.7455 45.5218 44.335C45.5218 47.9245 48.0265 50.4292 51.6161 50.4292ZM48.5689 65.6648C43.529 65.6648 39.4276 69.7663 39.4276 74.8062V77.8533H33.3333V74.8062C33.3333 66.4053 40.168 59.5706 48.5689 59.5706H54.6632C57.9122 59.5706 60.927 60.5929 63.4028 62.3327C63.3722 62.7189 63.3566 63.1093 63.3566 63.5034C63.3566 68.594 65.9555 73.0776 69.8988 75.6998V77.8533H63.8046V74.8062C63.8046 69.7663 59.7031 65.6648 54.6632 65.6648H48.5689Z" fill="#4095DE"/>
        <path d="M75.2333 63.1591L83.3707 55L86 58.2045L75.2333 69L69 62.1818L71.6293 59.5455L75.2333 63.1591Z" fill="#4095DE"/>
    </svg>

    <svg id="icon-6" width="112" height="112" viewBox="0 0 112 112" fill="none" xmlns="http://www.w3.org/2000/svg">
        <path opacity="0.5" fill-rule="evenodd" clip-rule="evenodd" d="M4.26277 34.5697C1.44851 41.3639 2.80697e-05 48.646 2.80697e-05 56H0.00631851C5.50484 29.3699 28.2205 9.03345 56 7.14413L56 0C48.646 0 41.364 1.44848 34.5697 4.26274C27.7755 7.07701 21.6021 11.2019 16.402 16.402C11.202 21.6021 7.07704 27.7755 4.26277 34.5697Z" fill="#4095DE"/>
        <path opacity="0.5" fill-rule="evenodd" clip-rule="evenodd" d="M107.737 77.4303C110.552 70.6361 112 63.354 112 56L111.994 56C106.495 82.6301 83.7795 102.967 56 104.856L56 112C63.354 112 70.636 110.552 77.4303 107.737C84.2245 104.923 90.3979 100.798 95.598 95.598C100.798 90.3979 104.923 84.2245 107.737 77.4303Z" fill="#4095DE"/>
        <path fill-rule="evenodd" clip-rule="evenodd" d="M48.9413 73.2548V82.6666H42.6668V73.2548H33.255V66.9803H42.6668V60.7058H33.255V54.4313H42.6668V32.4705C42.6668 31.6385 42.9973 30.8405 43.5857 30.2521C44.174 29.6638 44.972 29.3333 45.804 29.3333H63.0589C71.7083 29.3333 78.7452 36.3701 78.7452 45.0195C78.7452 50.1004 76.317 54.6249 72.56 57.4934C71.4287 57.172 70.2344 56.9999 69 56.9999C65.4622 56.9999 62.2544 58.4131 59.9105 60.7058H48.9413V66.9803H56.3525C56.122 67.9493 56 68.9604 56 69.9999C56 71.1239 56.1426 72.2146 56.4108 73.2548H48.9413ZM63.0589 35.6078H48.9413V54.4313H63.0589C68.2479 54.4313 72.4707 50.2085 72.4707 45.0195C72.4707 39.8305 68.2479 35.6078 63.0589 35.6078Z" fill="#4095DE"/>
        <path d="M66.2333 70.1591L74.3707 62L77 65.2045L66.2333 76L60 69.1818L62.6293 66.5455L66.2333 70.1591Z" fill="#4095DE"/>
    </svg>

    <svg id="icon-7" width="112" height="112" viewBox="0 0 112 112" fill="none" xmlns="http://www.w3.org/2000/svg">
        <path opacity="0.5" fill-rule="evenodd" clip-rule="evenodd" d="M4.26277 34.5697C1.44851 41.3639 2.80697e-05 48.646 2.80697e-05 56H0.00631851C5.50484 29.3699 28.2205 9.03345 56 7.14413L56 0C48.646 0 41.364 1.44848 34.5697 4.26274C27.7755 7.07701 21.6021 11.2019 16.402 16.402C11.202 21.6021 7.07704 27.7755 4.26277 34.5697Z" fill="#4095DE"/>
        <path opacity="0.5" fill-rule="evenodd" clip-rule="evenodd" d="M107.737 77.4303C110.552 70.6361 112 63.354 112 56L111.994 56C106.495 82.6301 83.7795 102.967 56 104.856L56 112C63.354 112 70.636 110.552 77.4303 107.737C84.2245 104.923 90.3979 100.798 95.598 95.598C100.798 90.3979 104.923 84.2245 107.737 77.4303Z" fill="#4095DE"/>
        <path fill-rule="evenodd" clip-rule="evenodd" d="M42.6668 42.9093V54.4313H33.255V60.7058H42.6668V66.9803H33.255V73.2548H42.6668V82.6666H48.9413V73.2548H67.7648V68.0073L66.7378 66.9803H48.9413V60.7058H60.4633L54.1888 54.4313H48.9413V49.1838L42.6668 42.9093ZM62.6741 54.4313H63.0589C68.2479 54.4313 72.4707 50.2085 72.4707 45.0195C72.4707 39.8305 68.2479 35.6078 63.0589 35.6078H48.9413V40.6985L42.6668 34.424V32.4705C42.6668 31.6385 42.9973 30.8405 43.5857 30.2521C44.174 29.6638 44.972 29.3333 45.804 29.3333H63.0589C71.7083 29.3333 78.7452 36.3701 78.7452 45.0195C78.7452 51.9014 74.2905 57.7624 68.1133 59.8705L62.6741 54.4313Z" fill="#4095DE"/>
        <rect x="33.2427" y="33" width="61" height="6" transform="rotate(45 33.2427 33)" fill="#4095DE"/>
    </svg>

    <svg id="icon-8" width="112" height="112" viewBox="0 0 112 112" fill="none" xmlns="http://www.w3.org/2000/svg">
        <path opacity="0.5" fill-rule="evenodd" clip-rule="evenodd" d="M4.26276 34.5697C1.4485 41.3639 1.2811e-05 48.646 1.2811e-05 56H0.00630325C5.50482 29.3699 28.2205 9.03345 56 7.14413L56 0C48.646 0 41.364 1.44848 34.5697 4.26274C27.7755 7.07701 21.6021 11.2019 16.402 16.402C11.202 21.6021 7.07702 27.7755 4.26276 34.5697Z" fill="#4095DE"/>
        <path opacity="0.5" fill-rule="evenodd" clip-rule="evenodd" d="M107.737 77.4303C110.552 70.6361 112 63.354 112 56L111.994 56C106.495 82.6301 83.7795 102.967 56 104.856L56 112C63.354 112 70.636 110.552 77.4303 107.737C84.2245 104.923 90.3979 100.798 95.598 95.598C100.798 90.3979 104.923 84.2245 107.737 77.4303Z" fill="#4095DE"/>
        <path fill-rule="evenodd" clip-rule="evenodd" d="M43.3333 34.9999V40.3333H38C36.5855 40.3333 35.2289 40.8952 34.2287 41.8953C33.2285 42.8955 32.6666 44.2521 32.6666 45.6666V72.3332C32.6666 73.7477 33.2285 75.1043 34.2287 76.1045C35.2289 77.1047 36.5855 77.6666 38 77.6666H57.6394C56.6707 76.0307 55.9405 74.237 55.4964 72.3332H38V45.6666H70V49.4217C71.2896 49.1454 72.6278 48.9999 74 48.9999C74.4482 48.9999 74.8928 49.0154 75.3333 49.046V45.6666C75.3333 44.2521 74.7714 42.8955 73.7712 41.8953C72.771 40.8952 71.4144 40.3333 70 40.3333H64.6666V34.9999C64.6666 32.1709 63.5428 29.4578 61.5424 27.4574C59.542 25.4571 56.8289 24.3333 54 24.3333C51.171 24.3333 48.4579 25.4571 46.4575 27.4574C44.4571 29.4578 43.3333 32.1709 43.3333 34.9999ZM48.6666 40.3333V34.9999C48.6666 33.5854 49.2285 32.2289 50.2287 31.2287C51.2289 30.2285 52.5855 29.6666 54 29.6666C55.4144 29.6666 56.771 30.2285 57.7712 31.2287C58.7714 32.2289 59.3333 33.5854 59.3333 34.9999V40.3333H48.6666Z" fill="#4095DE"/>
        <path fill-rule="evenodd" clip-rule="evenodd" d="M73.0063 77.4615C71.9808 76.8408 70.6965 75.9434 69.5017 74.7708C67.4694 72.7764 66 70.3084 66 67.2178V62.1208C67.1843 61.9406 68.4482 61.6605 69.5705 61.2217L69.5724 61.221C70.9054 60.6992 72.1039 59.8948 72.9986 59.2144C73.8932 59.895 75.0931 60.7007 76.4294 61.2222M61 58.6055C61.0034 58.3026 61.1241 58.0128 61.3367 57.797C61.5493 57.5813 61.8372 57.4564 62.14 57.4487C63.583 57.3991 66.0805 57.2176 67.75 56.5649C69.3025 55.9572 71.0995 54.3593 72.1375 53.3465C72.3693 53.1242 72.6781 53 72.9993 53C73.3204 53 73.6292 53.1242 73.861 53.3465C74.899 54.3593 76.6945 55.9587 78.2485 56.5649C79.9195 57.2176 82.417 57.3991 83.86 57.4487C84.1628 57.4564 84.4507 57.5813 84.6633 57.797C84.8759 58.0128 84.9966 58.3026 85 58.6055V67.5374C85 76.9855 75.526 81.9248 73.4125 82.9061C73.283 82.9679 73.1413 83 72.9978 83C72.8542 83 72.7125 82.9679 72.583 82.9061C70.471 81.9188 61 76.945 61 67.2178V58.6055ZM73.0063 77.4615C74.0373 76.8444 75.3284 75.9544 76.5282 74.7975C78.5762 72.8228 80 70.441 80 67.5374V62.1209C78.8166 61.9408 77.5536 61.6611 76.4315 61.2231" fill="#4095DE"/>
        <circle cx="54" cy="59" r="4" fill="#4095DE"/>
    </svg>

    <svg id="icon-phone" width="24" height="24" viewBox="0 0 24 24" fill="none" xmlns="http://www.w3.org/2000/svg">
        <path d="M12 0C5.37258 0 0 5.37258 0 12C0 18.6274 5.37258 24 12 24C18.6274 24 24 18.6274 24 12C24 5.37258 18.6274 0 12 0ZM7.6875 4.7666C7.93474 4.75202 8.15822 4.8998 8.32764 5.1621L9.96826 8.27342C10.141 8.6421 10.0428 9.03686 9.78516 9.30028L9.0337 10.0517C8.98732 10.1153 8.9568 10.1869 8.95606 10.2656C9.24424 11.3811 10.1184 12.4101 10.8897 13.1177C11.6609 13.8253 12.4899 14.7833 13.5659 15.0102C13.6989 15.0473 13.8619 15.0606 13.957 14.9722L14.8301 14.083C15.1314 13.8546 15.5674 13.7439 15.8892 13.9307H15.9038L18.8642 15.6782C19.2988 15.9506 19.3438 16.4771 19.0327 16.7974L16.9937 18.8203C16.6925 19.1291 16.2925 19.2329 15.9038 19.2334C14.1849 19.1819 12.5607 18.3382 11.2266 17.4712C9.0368 15.8781 7.02814 13.9023 5.7671 11.5151C5.28346 10.5141 4.71532 9.23694 4.76954 8.11966C4.77438 7.69934 4.8881 7.28756 5.1841 7.01664L7.22316 4.97758C7.382 4.84242 7.53914 4.77536 7.6875 4.7666V4.7666Z" fill="white"/>
    </svg>

    <svg id="icon-mail" width="24" height="24" viewBox="0 0 24 24" fill="none" xmlns="http://www.w3.org/2000/svg">
        <path d="M21.75 3.75H2.25C1.83516 3.75 1.5 4.08516 1.5 4.5V19.5C1.5 19.9148 1.83516 20.25 2.25 20.25H21.75C22.1648 20.25 22.5 19.9148 22.5 19.5V4.5C22.5 4.08516 22.1648 3.75 21.75 3.75ZM19.8563 6.30234L12.4617 12.0563C12.2789 12.1992 12.0234 12.1992 11.8406 12.0563L4.44375 6.30234C4.41587 6.28082 4.39541 6.25112 4.38526 6.21739C4.37511 6.18367 4.37576 6.14761 4.38713 6.11427C4.3985 6.08094 4.42002 6.052 4.44867 6.0315C4.47731 6.01101 4.51165 5.99999 4.54688 6H19.7531C19.7883 5.99999 19.8227 6.01101 19.8513 6.0315C19.88 6.052 19.9015 6.08094 19.9129 6.11427C19.9242 6.14761 19.9249 6.18367 19.9147 6.21739C19.9046 6.25112 19.8841 6.28082 19.8563 6.30234V6.30234Z" fill="white"/>
    </svg>

    <svg id="icon-map" width="24" height="21" viewBox="0 0 24 21" fill="none" xmlns="http://www.w3.org/2000/svg">
        <path d="M12 2C9.58368 2 7.625 3.87299 7.625 6.18359C7.625 8.0516 10.4844 11.4562 11.5799 12.6921C11.8017 12.9424 12.1986 12.9424 12.4201 12.6921C13.5156 11.4562 16.375 8.0516 16.375 6.18359C16.375 3.87299 14.4163 2 12 2ZM2.69861 9.17021C2.49242 9.24908 2.31567 9.3852 2.19115 9.56103C2.06663 9.73686 2.00005 9.94433 2 10.1567V18.4681C2 18.8439 2.39688 19.1009 2.76181 18.9615L7.55556 16.875V9.13602C7.24861 8.60543 6.99757 8.08879 6.81771 7.59473L2.69861 9.17021ZM12 13.9422C11.5115 13.9422 11.0493 13.737 10.7323 13.379C10.0497 12.6087 9.32361 11.7315 8.66667 10.8317V16.8747L15.3333 18.9997V10.832C14.6764 11.7315 13.9507 12.6091 13.2677 13.3794C12.9507 13.737 12.4885 13.9422 12 13.9422ZM21.2382 7.35102L16.4444 9.4375V19L21.3014 17.1423C21.5076 17.0635 21.6844 16.9273 21.8089 16.7515C21.9334 16.5757 22 16.3682 22 16.1558V7.84441C22 7.46855 21.6031 7.21156 21.2382 7.35102Z" fill="white"/>
    </svg>

    <svg id="icon-instagram" width="32" height="32" viewBox="0 0 32 32" fill="none" xmlns="http://www.w3.org/2000/svg">
        <path d="M16.0001 11.8344C13.7064 11.8344 11.8345 13.7062 11.8345 16C11.8345 18.2937 13.7064 20.1656 16.0001 20.1656C18.2939 20.1656 20.1658 18.2937 20.1658 16C20.1658 13.7062 18.2939 11.8344 16.0001 11.8344ZM28.4939 16C28.4939 14.275 28.5095 12.5656 28.4126 10.8437C28.3158 8.84374 27.8595 7.06874 26.397 5.60624C24.9314 4.14062 23.1595 3.68749 21.1595 3.59062C19.4345 3.49374 17.7251 3.50937 16.0033 3.50937C14.2783 3.50937 12.5689 3.49374 10.847 3.59062C8.84702 3.68749 7.07202 4.14374 5.60952 5.60624C4.1439 7.07187 3.69077 8.84374 3.5939 10.8437C3.49702 12.5687 3.51265 14.2781 3.51265 16C3.51265 17.7219 3.49702 19.4344 3.5939 21.1562C3.69077 23.1562 4.14702 24.9312 5.60952 26.3937C7.07515 27.8594 8.84702 28.3125 10.847 28.4094C12.572 28.5062 14.2814 28.4906 16.0033 28.4906C17.7283 28.4906 19.4376 28.5062 21.1595 28.4094C23.1595 28.3125 24.9345 27.8562 26.397 26.3937C27.8626 24.9281 28.3158 23.1562 28.4126 21.1562C28.5126 19.4344 28.4939 17.725 28.4939 16V16ZM16.0001 22.4094C12.4533 22.4094 9.59077 19.5469 9.59077 16C9.59077 12.4531 12.4533 9.59062 16.0001 9.59062C19.547 9.59062 22.4095 12.4531 22.4095 16C22.4095 19.5469 19.547 22.4094 16.0001 22.4094ZM22.672 10.825C21.8439 10.825 21.1751 10.1562 21.1751 9.32812C21.1751 8.49999 21.8439 7.83124 22.672 7.83124C23.5001 7.83124 24.1689 8.49999 24.1689 9.32812C24.1691 9.52476 24.1306 9.71952 24.0555 9.90124C23.9803 10.083 23.8701 10.2481 23.731 10.3871C23.592 10.5262 23.4269 10.6364 23.2451 10.7116C23.0634 10.7867 22.8687 10.8252 22.672 10.825V10.825Z" fill="white"/>
    </svg>

    <svg id="icon-facebook" width="24" height="24" viewBox="0 0 24 24" fill="none" xmlns="http://www.w3.org/2000/svg">
        <g clip-path="url(#clip0)">
            <path d="M24.001 12.074C24.001 5.40499 18.628 -0.00100708 12.001 -0.00100708C5.37105 0.00049292 -0.00195312 5.405 -0.00195312 12.0755C-0.00195312 18.101 4.38705 23.096 10.123 24.002V15.5645H7.07805V12.0755H10.126V9.413C10.126 6.38749 11.9185 4.71649 14.659 4.71649C15.973 4.71649 17.3455 4.95199 17.3455 4.95199V7.92199H15.832C14.3425 7.92199 13.8775 8.85349 13.8775 9.809V12.074H17.2045L16.6735 15.563H13.876V24.0005C19.612 23.0945 24.001 18.0995 24.001 12.074Z" fill="white"/>
        </g>
        <defs>
            <clipPath id="clip0">
                <rect width="24" height="24" fill="white"/>
            </clipPath>
        </defs>
    </svg>

    <svg id="icon-phone-single" width="24" height="24" viewBox="0 0 24 24" fill="#4095DE" xmlns="http://www.w3.org/2000/svg">
        <path d="M12 0C5.37258 0 0 5.37258 0 12C0 18.6274 5.37258 24 12 24C18.6274 24 24 18.6274 24 12C24 5.37258 18.6274 0 12 0ZM7.6875 4.7666C7.93474 4.75202 8.15822 4.8998 8.32764 5.1621L9.96826 8.27342C10.141 8.6421 10.0428 9.03686 9.78516 9.30028L9.0337 10.0517C8.98732 10.1153 8.9568 10.1869 8.95606 10.2656C9.24424 11.3811 10.1184 12.4101 10.8897 13.1177C11.6609 13.8253 12.4899 14.7833 13.5659 15.0102C13.6989 15.0473 13.8619 15.0606 13.957 14.9722L14.8301 14.083C15.1314 13.8546 15.5674 13.7439 15.8892 13.9307H15.9038L18.8642 15.6782C19.2988 15.9506 19.3438 16.4771 19.0327 16.7974L16.9937 18.8203C16.6925 19.1291 16.2925 19.2329 15.9038 19.2334C14.1849 19.1819 12.5607 18.3382 11.2266 17.4712C9.0368 15.8781 7.02814 13.9023 5.7671 11.5151C5.28346 10.5141 4.71532 9.23694 4.76954 8.11966C4.77438 7.69934 4.8881 7.28756 5.1841 7.01664L7.22316 4.97758C7.382 4.84242 7.53914 4.77536 7.6875 4.7666V4.7666Z" fill="#4095DE"/>
    </svg>

    <svg id="icon-mail-single" width="24" height="24" viewBox="0 0 24 24" fill="#4095DE" xmlns="http://www.w3.org/2000/svg">
        <path d="M21.75 3.75H2.25C1.83516 3.75 1.5 4.08516 1.5 4.5V19.5C1.5 19.9148 1.83516 20.25 2.25 20.25H21.75C22.1648 20.25 22.5 19.9148 22.5 19.5V4.5C22.5 4.08516 22.1648 3.75 21.75 3.75ZM19.8563 6.30234L12.4617 12.0563C12.2789 12.1992 12.0234 12.1992 11.8406 12.0563L4.44375 6.30234C4.41587 6.28082 4.39541 6.25112 4.38526 6.21739C4.37511 6.18367 4.37576 6.14761 4.38713 6.11427C4.3985 6.08094 4.42002 6.052 4.44867 6.0315C4.47731 6.01101 4.51165 5.99999 4.54688 6H19.7531C19.7883 5.99999 19.8227 6.01101 19.8513 6.0315C19.88 6.052 19.9015 6.08094 19.9129 6.11427C19.9242 6.14761 19.9249 6.18367 19.9147 6.21739C19.9046 6.25112 19.8841 6.28082 19.8563 6.30234V6.30234Z" fill="#4095DE"/>
    </svg>

    <svg id="icon-map-single" width="24" height="21" viewBox="0 0 24 21" fill="#4095DE" xmlns="http://www.w3.org/2000/svg">
        <path d="M12 2C9.58368 2 7.625 3.87299 7.625 6.18359C7.625 8.0516 10.4844 11.4562 11.5799 12.6921C11.8017 12.9424 12.1986 12.9424 12.4201 12.6921C13.5156 11.4562 16.375 8.0516 16.375 6.18359C16.375 3.87299 14.4163 2 12 2ZM2.69861 9.17021C2.49242 9.24908 2.31567 9.3852 2.19115 9.56103C2.06663 9.73686 2.00005 9.94433 2 10.1567V18.4681C2 18.8439 2.39688 19.1009 2.76181 18.9615L7.55556 16.875V9.13602C7.24861 8.60543 6.99757 8.08879 6.81771 7.59473L2.69861 9.17021ZM12 13.9422C11.5115 13.9422 11.0493 13.737 10.7323 13.379C10.0497 12.6087 9.32361 11.7315 8.66667 10.8317V16.8747L15.3333 18.9997V10.832C14.6764 11.7315 13.9507 12.6091 13.2677 13.3794C12.9507 13.737 12.4885 13.9422 12 13.9422ZM21.2382 7.35102L16.4444 9.4375V19L21.3014 17.1423C21.5076 17.0635 21.6844 16.9273 21.8089 16.7515C21.9334 16.5757 22 16.3682 22 16.1558V7.84441C22 7.46855 21.6031 7.21156 21.2382 7.35102Z" fill="#4095DE"/>
    </svg>

    <svg id="icon-instagram-single" width="32" height="32" viewBox="0 0 32 32" fill="#4095DE" xmlns="http://www.w3.org/2000/svg">
        <path d="M16.0001 11.8344C13.7064 11.8344 11.8345 13.7062 11.8345 16C11.8345 18.2937 13.7064 20.1656 16.0001 20.1656C18.2939 20.1656 20.1658 18.2937 20.1658 16C20.1658 13.7062 18.2939 11.8344 16.0001 11.8344ZM28.4939 16C28.4939 14.275 28.5095 12.5656 28.4126 10.8437C28.3158 8.84374 27.8595 7.06874 26.397 5.60624C24.9314 4.14062 23.1595 3.68749 21.1595 3.59062C19.4345 3.49374 17.7251 3.50937 16.0033 3.50937C14.2783 3.50937 12.5689 3.49374 10.847 3.59062C8.84702 3.68749 7.07202 4.14374 5.60952 5.60624C4.1439 7.07187 3.69077 8.84374 3.5939 10.8437C3.49702 12.5687 3.51265 14.2781 3.51265 16C3.51265 17.7219 3.49702 19.4344 3.5939 21.1562C3.69077 23.1562 4.14702 24.9312 5.60952 26.3937C7.07515 27.8594 8.84702 28.3125 10.847 28.4094C12.572 28.5062 14.2814 28.4906 16.0033 28.4906C17.7283 28.4906 19.4376 28.5062 21.1595 28.4094C23.1595 28.3125 24.9345 27.8562 26.397 26.3937C27.8626 24.9281 28.3158 23.1562 28.4126 21.1562C28.5126 19.4344 28.4939 17.725 28.4939 16V16ZM16.0001 22.4094C12.4533 22.4094 9.59077 19.5469 9.59077 16C9.59077 12.4531 12.4533 9.59062 16.0001 9.59062C19.547 9.59062 22.4095 12.4531 22.4095 16C22.4095 19.5469 19.547 22.4094 16.0001 22.4094ZM22.672 10.825C21.8439 10.825 21.1751 10.1562 21.1751 9.32812C21.1751 8.49999 21.8439 7.83124 22.672 7.83124C23.5001 7.83124 24.1689 8.49999 24.1689 9.32812C24.1691 9.52476 24.1306 9.71952 24.0555 9.90124C23.9803 10.083 23.8701 10.2481 23.731 10.3871C23.592 10.5262 23.4269 10.6364 23.2451 10.7116C23.0634 10.7867 22.8687 10.8252 22.672 10.825V10.825Z" fill="#4095DE"/>
    </svg>

    <svg id="icon-facebook-single" width="24" height="24" viewBox="0 0 24 24" fill="#4095DE" xmlns="http://www.w3.org/2000/svg">
        <g clip-path="url(#clip0)">
            <path d="M24.001 12.074C24.001 5.40499 18.628 -0.00100708 12.001 -0.00100708C5.37105 0.00049292 -0.00195312 5.405 -0.00195312 12.0755C-0.00195312 18.101 4.38705 23.096 10.123 24.002V15.5645H7.07805V12.0755H10.126V9.413C10.126 6.38749 11.9185 4.71649 14.659 4.71649C15.973 4.71649 17.3455 4.95199 17.3455 4.95199V7.92199H15.832C14.3425 7.92199 13.8775 8.85349 13.8775 9.809V12.074H17.2045L16.6735 15.563H13.876V24.0005C19.612 23.0945 24.001 18.0995 24.001 12.074Z" fill="#4095DE"/>
        </g>
        <defs>
            <clipPath id="clip0">
                <rect width="24" height="24" fill="#4095DE"/>
            </clipPath>
        </defs>
    </svg>

    <svg id="back" width="20" height="20" viewBox="0 0 20 20" fill="none" xmlns="http://www.w3.org/2000/svg">
        <path d="M18 9V11H6L10 15L9 17L2 10L9 3L10 5L6 9H18Z" fill="#4095DE"/>
    </svg>

    <svg id="accordion-plus" width="32" height="32" viewBox="0 0 32 32" fill="none" xmlns="http://www.w3.org/2000/svg">
        <path fill-rule="evenodd" clip-rule="evenodd" d="M30.7821 9.87706C31.5861 11.8183 32 13.8988 32 16H31.9992C30.3955 8.85692 24.0148 3.52014 16.3877 3.52014C16.2581 3.52014 16.1288 3.52168 16 3.52474L16 0C18.1011 -9.18444e-08 20.1817 0.413852 22.1229 1.21793C24.0641 2.022 25.828 3.20055 27.3137 4.68629C28.7994 6.17202 29.978 7.93585 30.7821 9.87706Z" fill="#221952"/>
        <path fill-rule="evenodd" clip-rule="evenodd" d="M1.21794 22.1229C0.413862 20.1817 1.07518e-05 18.1012 1.09355e-05 16L0.000986544 16C1.60469 23.1431 7.98536 28.4799 15.6125 28.4799C15.742 28.4799 15.8712 28.4783 16 28.4753L16 32C13.8989 32 11.8183 31.5861 9.87707 30.7821C7.93586 29.978 6.17203 28.7994 4.6863 27.3137C3.20056 25.828 2.02201 24.0641 1.21794 22.1229Z" fill="#221952"/>
        <rect x="14" y="8" width="4" height="16" fill="#221952"/>
        <rect x="25" y="14" width="4" height="18" transform="rotate(90 25 14)" fill="#221952"/>
    </svg>

    <svg id="accordion-minus" width="32" height="32" viewBox="0 0 32 32" fill="none" xmlns="http://www.w3.org/2000/svg">
        <path fill-rule="evenodd" clip-rule="evenodd" d="M30.7821 9.87706C31.5861 11.8183 32 13.8988 32 16H31.9992C30.3955 8.85692 24.0148 3.52014 16.3877 3.52014C16.2581 3.52014 16.1288 3.52168 16 3.52474L16 0C18.1011 -9.18444e-08 20.1817 0.413852 22.1229 1.21793C24.0641 2.022 25.828 3.20055 27.3137 4.68629C28.7994 6.17202 29.978 7.93585 30.7821 9.87706Z" fill="#4095DE"/>
        <path fill-rule="evenodd" clip-rule="evenodd" d="M1.21794 22.1229C0.413862 20.1817 1.07518e-05 18.1012 1.09355e-05 16L0.000986544 16C1.60469 23.1431 7.98536 28.4799 15.6125 28.4799C15.742 28.4799 15.8712 28.4783 16 28.4753L16 32C13.8989 32 11.8183 31.5861 9.87707 30.7821C7.93586 29.978 6.17203 28.7994 4.6863 27.3137C3.20056 25.828 2.02201 24.0641 1.21794 22.1229Z" fill="#4095DE"/>
        <rect x="25" y="14" width="4" height="18" transform="rotate(90 25 14)" fill="#4095DE"/>
    </svg>
    <svg id="calendar"  width="24" height="24" viewBox="0 0 24 24" fill="none" xmlns="http://www.w3.org/2000/svg">
        <path d="M7 11H9V13H7V11ZM7 15H9V17H7V15ZM11 11H13V13H11V11ZM11 15H13V17H11V15ZM15 11H17V13H15V11ZM15 15H17V17H15V15Z" fill="#908CA8"/>
        <path d="M5 22H19C20.103 22 21 21.103 21 20V6C21 4.897 20.103 4 19 4H17V2H15V4H9V2H7V4H5C3.897 4 3 4.897 3 6V20C3 21.103 3.897 22 5 22ZM19 8L19.001 20H5V8H19Z" fill="#908CA8"/>
    </svg>


</svg>
